<svg width="168" height="31" viewBox="0 0 168 31" xmlns="http://www.w3.org/2000/svg"><title>nav-logo</title><g fill="none" fill-rule="evenodd"><path d="M23.713 1.672v21.784" stroke="#E33D26" stroke-width=".5"/><path d="M49.512 22.465v-6.19c-.66.388-1.247.71-1.756.968-.51.258-.97.463-1.39.614-.42.148-.807.255-1.16.322-.355.064-.73.093-1.128.093-.95 0-1.857-.207-2.718-.626a5.674 5.674 0 0 1-2.122-1.757 7.01 7.01 0 0 1-.977-1.92c-.232-.697-.347-1.498-.347-2.4 0-.816.092-1.564.282-2.24.187-.68.448-1.263.778-1.76a3.63 3.63 0 0 1 1.194-1.142c.464-.27.982-.405 1.557-.405 1.77 0 2.785 1.3 3.05 3.9h4.74v-8.67h-4.74v.775a10.701 10.701 0 0 0-2.436-.922 11.53 11.53 0 0 0-2.602-.272c-1.393 0-2.73.224-4.01.675a10.188 10.188 0 0 0-3.383 1.965c-1.06.946-1.862 2.13-2.403 3.547-.542 1.42-.81 3.042-.81 4.868 0 1.85.302 3.536.91 5.062.607 1.526 1.458 2.833 2.55 3.917 1.096 1.086 2.41 1.92 3.947 2.512 1.535.59 3.23.887 5.088.887.75 0 1.45-.033 2.105-.097a15.206 15.206 0 0 0 3.744-.855c.63-.224 1.31-.508 2.038-.853zm19.922-9.59a7.369 7.369 0 0 0-1.956-2.564c-.84-.707-1.85-1.26-3.032-1.66-1.183-.394-2.482-.594-3.896-.594-1.37 0-2.64.205-3.812.612-1.17.407-2.188.972-3.05 1.69a7.85 7.85 0 0 0-2.022 2.566 7.2 7.2 0 0 0-.73 3.224c0 1.158.244 2.228.73 3.208a7.673 7.673 0 0 0 2.023 2.53c.86.71 1.877 1.268 3.048 1.677 1.172.407 2.452.61 3.847.61 1.393 0 2.672-.192 3.845-.58 1.17-.387 2.18-.934 3.032-1.644a7.392 7.392 0 0 0 1.972-2.53c.464-.98.697-2.06.697-3.24 0-1.205-.232-2.306-.696-3.305zm-7.027 5.464c-.176.43-.437.777-.778 1.047-.343.27-.702.403-1.078.403-.686 0-1.21-.344-1.575-1.032-.363-.687-.547-1.677-.547-2.966 0-1.16.176-2.042.53-2.644.354-.602.863-.902 1.527-.902.417 0 .795.133 1.126.402.332.27.586.63.762 1.082.177.47.264 1.31.264 2.513 0 .967-.078 1.668-.233 2.096zm27.25-5.465a7.44 7.44 0 0 0-1.96-2.564c-.838-.707-1.848-1.26-3.03-1.66-1.185-.394-2.48-.594-3.897-.594-1.367 0-2.64.205-3.81.612-1.172.407-2.188.972-3.05 1.69a7.753 7.753 0 0 0-2.02 2.566c-.49.987-.73 2.062-.73 3.224 0 1.158.24 2.228.73 3.208a7.664 7.664 0 0 0 2.02 2.53c.862.71 1.88 1.268 3.05 1.677 1.17.407 2.453.61 3.845.61 1.39 0 2.673-.192 3.845-.58 1.173-.387 2.183-.934 3.034-1.644a7.457 7.457 0 0 0 1.973-2.53c.463-.98.695-2.06.695-3.24 0-1.205-.232-2.306-.696-3.305zm-7.03 5.464c-.175.43-.436.777-.778 1.047-.344.27-.702.403-1.08.403-.684 0-1.208-.344-1.573-1.032-.364-.687-.547-1.677-.547-2.966 0-1.16.176-2.042.53-2.644.354-.602.863-.902 1.527-.902.42 0 .794.133 1.126.402.333.27.587.63.762 1.082.177.47.265 1.31.265 2.513 0 .967-.078 1.668-.232 2.096zm29.636 5.512v-4.19h-1.26l-4.245-4.318 3.085-2.772h1.756V8.38h-9.65v4.19h2.356l-4.41 3.705V1.253h-8.883v4.192h1.393V19.66h-1.393v4.192h8.884v-6.384l5.9 6.384h6.466zm9.977-22.6h-7.492v5.512h7.492v-5.51zm1.392 22.6v-4.19h-1.392V8.378h-8.784v4.19h1.292v7.092h-1.292v4.192h10.176zm22.375 0v-4.19h-1.358v-6.9c0-.665-.145-1.288-.432-1.868a4.653 4.653 0 0 0-1.177-1.5 5.534 5.534 0 0 0-1.773-.982 6.791 6.791 0 0 0-2.224-.354c-.994 0-2.01.236-3.05.71a6.099 6.099 0 0 0-.777.418c-.277.172-.69.442-1.243.804l-.3.196V8.38h-8.783v4.19h1.293v7.09h-1.293v4.193h10.077V19.66h-1.293v-4.67c0-.752.154-1.342.464-1.774.31-.43.75-.643 1.326-.643.464 0 .86.167 1.194.5.33.335.497.747.497 1.242v9.542h8.852v-.002zm21.117-11.282V8.38h-8.685v1.256a9.56 9.56 0 0 0-1.08-.756 5.448 5.448 0 0 0-2.107-.742 8.87 8.87 0 0 0-1.257-.08c-1.06 0-2.033.187-2.917.564a6.29 6.29 0 0 0-2.255 1.595c-.62.69-1.1 1.515-1.442 2.482-.342.968-.514 2.042-.514 3.225 0 1.718.386 3.234 1.16 4.543.64 1.055 1.44 1.88 2.403 2.483.96.603 1.982.904 3.065.904a5.99 5.99 0 0 0 1.724-.258 5.981 5.981 0 0 0 1.56-.708c.242-.172.48-.355.71-.548.233-.195.55-.506.947-.935-.067 1.396-.538 2.483-1.41 3.255-.873.773-2.06 1.162-3.564 1.162-1.637 0-3.27-.408-4.906-1.224v4.127l.3.095c1.213.388 2.275.624 3.18.71.907.084 1.868.13 2.886.13 4.197 0 7.236-1.194 9.114-3.58.377-.45.675-.923.895-1.418.22-.493.4-1.063.53-1.707.11-.452.194-.928.25-1.435.054-.505.08-.93.08-1.272v-7.673h1.33v-.005zm-9.232 6.06c-.276.558-.734.84-1.375.84-.707 0-1.243-.31-1.61-.92-.363-.613-.546-1.49-.546-2.627 0-2.45.653-3.676 1.96-3.676.53 0 .98.214 1.357.646.22.235.387.686.497 1.352.045.28.077.58.1.904.02.32.03.59.03.803 0 1.226-.137 2.118-.412 2.677zM18.71 15.347c-.778 2.003-2.214 3.55-4.274 4.37v-4.37l2.465-2.154-2.464-2.125V8.063c2.246-.15 3.807-1.76 3.807-3.732 0-2.578-2.528-3.49-3.963-3.49-.312 0-.656 0-1.155.123v.122c.188 0 .47-.03.562-.03 1 0 1.748.454 1.748 1.335 0 .667-.562 1.335-1.56 1.335-2.466 0-5.367-1.942-8.52-1.942C2.548 1.783.614 3.816.614 5.88c0 2.033 1.216 2.7 2.496 3.156l.03-.122c-.404-.243-.685-.667-.685-1.336 0-.91.873-1.67 1.966-1.67 2.654 0 6.928 2.155 9.58 2.155h.25v3.035l-2.465 2.093 2.466 2.156v4.43c-1.028.364-2.09.516-3.183.516-4.12 0-6.74-2.43-6.74-6.464 0-.97.125-1.912.405-2.823l2.06-.88v8.922l4.182-1.79V8.122l-6.148 2.67c.622-1.76 1.902-3.034 3.43-3.762l-.03-.092c-4.12.88-8.115 3.915-8.115 8.467 0 5.25 4.556 8.892 9.862 8.892 5.617 0 8.8-3.64 8.83-8.953h-.094v.003z" fill="#E33D26"/></g></svg>